<?xml version="1.0" encoding="UTF-8"?>
<svg width="512px" height="80px" viewBox="0 0 512 80" version="1.1" xmlns="http://www.w3.org/2000/svg" xmlns:xlink="http://www.w3.org/1999/xlink">
    <!-- Generator: Sketch 63.1 (92452) - https://sketch.com -->
    <title>adorsys-logo</title>
    <desc>Created with Sketch.</desc>
    <g id="Page-1" stroke="none" stroke-width="1" fill="none" fill-rule="evenodd">
        <path d="M429.995867,14.1605261 C431.693543,14.0794205 433.395077,14.1901045 435.06709,14.4904069 C436.649966,14.997916 437.445705,16.3512734 437.454307,18.5504793 L437.454307,18.5504793 L437.454307,75.6452463 C437.454307,77.8021597 436.654267,79.134371 435.054186,79.64188 C433.352353,79.9470948 431.620333,80.0577903 429.892636,79.9717609 C426.993565,79.9717609 425.544029,78.5084432 425.544029,75.5818077 L425.544029,75.5818077 L425.544029,66.2563291 L390.510006,66.2563291 C372.831695,66.2563291 363.99254,61.0332152 363.99254,50.5869875 L363.99254,50.5869875 L363.99254,18.4870406 C363.99254,16.3385857 364.775375,15.0063745 366.341045,14.4904069 C368.00872,14.190185 369.705972,14.0794978 371.399365,14.1605261 C374.298436,14.1605261 375.747971,15.6026976 375.747971,18.4870406 L375.747971,18.4870406 L375.747971,50.5235488 C375.747971,54.5413287 380.668649,56.5502187 390.510006,56.5502187 L390.510006,56.5502187 L425.595645,56.5502187 L425.595645,18.4870406 C425.595645,15.6026976 427.062386,14.1605261 429.995867,14.1605261 Z M43.4860628,14.6172842 C53.3360216,14.6172842 60.5062755,15.2389828 64.9968244,16.4823799 C73.5994086,18.82538 77.9007006,23.595965 77.9007006,30.7941349 L77.8748929,51.3990019 C77.8748929,61.921356 69.8529832,67.1867623 53.8091638,67.1952208 L25.0593276,67.1952208 C19.54836,67.2481926 14.0978121,66.063517 9.12304048,63.7314716 C3.04101349,60.8809625 0,56.9519967 0,51.9445741 L0,45.2581425 C0,39.7770449 2.89907085,35.6619924 8.69721256,32.9129851 C13.7227636,30.6794447 19.197828,29.5949659 24.7109229,29.7410536 L66.3388276,29.7410536 C65.7452493,26.0446961 60.4116471,24.2007466 50.3380211,24.2092051 C49.2540955,24.2092051 47.9249962,24.2092051 46.3636272,24.2853314 L43.5118706,24.3614578 C40.6041971,24.3614578 39.1503604,22.9404325 39.1503604,20.0983818 L39.1503604,18.9437988 C39.1503604,16.0594557 40.5955945,14.6172842 43.4860628,14.6172842 Z M278.452745,14.1983267 C281.386226,14.1732138 282.857268,15.9875586 282.86587,19.6416237 C282.86587,22.4836743 281.394828,23.9046996 278.465648,23.9046996 L273.458945,23.9046996 C264.434834,23.9046996 259.922778,26.112364 259.922778,30.5276926 L259.922778,62.4119481 C259.922778,64.5688615 259.122738,65.9010727 257.522657,66.4085818 C255.820881,66.7142489 254.088807,66.8249478 252.361107,66.7384627 C249.462036,66.7384627 248.012501,65.2751449 248.012501,62.3485095 L248.154443,30.4769417 C248.154443,19.6247067 258.253877,14.1983267 278.452745,14.1983267 Z M195.067897,14.1605261 L214.668885,14.1605261 C232.054707,14.1605261 240.747618,19.751584 240.747618,30.9336999 L240.747618,50.3966716 C240.747618,56.3176104 237.736714,60.7033343 231.714905,63.5538434 C226.339911,65.8340233 220.519854,66.9213541 214.668885,66.7384627 L195.119512,66.7384627 C189.138125,66.8752732 183.195564,65.7594341 177.686375,63.4650294 C171.148411,60.6145202 167.879429,56.2457133 167.879429,50.3586084 L167.879429,31.0478894 C167.879429,25.2369109 171.131206,20.7962068 177.63476,17.7257771 C183.101099,15.2691825 189.058683,14.0507969 195.067897,14.1605261 Z M323.11306,14.1605261 C326.046541,14.1605261 327.513282,15.6026976 327.513282,18.4870406 L327.513282,19.6416237 C327.513282,22.4836743 326.046541,23.9046996 323.11306,23.9046996 L314.648117,23.9046996 C310.346825,23.9046996 307.710133,23.9596798 306.738041,24.0696401 C302.80666,24.5094813 300.84097,25.6978983 300.84097,27.6348911 L300.84097,30.3754399 C300.84097,32.6423136 302.866878,34.0844852 306.918695,34.7019545 C309.766379,35.0272448 312.633868,35.1544383 315.499773,35.0825863 L334.99753,35.0825863 C349.51009,35.0825863 356.770671,39.8193373 356.779273,49.2928394 L356.753465,51.7035073 C356.753465,61.7268109 349.01114,66.7384627 333.526488,66.7384627 L293.692222,66.7384627 C290.801754,66.7384627 289.352219,65.2962911 289.343616,62.4119481 C289.343616,58.8340094 290.793152,57.04504 293.692222,57.04504 L333.526488,57.04504 C340.873095,57.04504 344.5507,55.2687583 344.559302,51.7161951 L344.559302,49.7242221 C344.559302,46.5353736 341.217198,44.9409494 334.532991,44.9409494 L315.435254,44.9409494 C297.842969,44.9409494 289.046827,40.1196135 289.046827,30.4769417 L289.046827,27.6348911 C289.046827,21.2064432 293.520171,17.0787031 302.466858,15.2516705 C306.071341,14.5242409 312.953408,14.1605261 323.11306,14.1605261 Z M478.385402,14.1605261 C481.318884,14.1605261 482.785624,15.6026976 482.785624,18.4870406 L482.785624,19.6416237 C482.785624,22.4836743 481.318884,23.9046996 478.385402,23.9046996 L469.907556,23.9046996 C465.606264,23.9046996 462.969572,23.9596798 461.99748,24.0696401 C458.066099,24.5094813 456.100408,25.6978983 456.100408,27.6348911 L456.100408,30.3754399 C456.100408,32.6423136 458.126317,34.0844852 462.178134,34.7019545 C465.025825,35.0271606 467.893307,35.1543539 470.759212,35.0825863 L490.218257,35.0825863 C504.739419,35.0825863 512,39.8193373 512,49.2928394 L512,51.7035073 C512,61.7268109 504.257674,66.7384627 488.773023,66.7384627 L448.938757,66.7384627 C446.039686,66.7384627 444.590151,65.2962911 444.590151,62.4119481 C444.590151,58.8340094 446.039686,57.04504 448.938757,57.04504 L488.773023,57.04504 C496.128232,57.04504 499.801536,55.2687583 499.792933,51.7161951 L499.792933,49.7242221 C499.792933,46.5353736 496.450829,44.9409494 489.766621,44.9409494 L470.668885,44.9409494 C453.102408,44.9409494 444.319169,40.1196135 444.319169,30.4769417 L444.319169,27.6348911 C444.319169,21.2064432 448.792513,17.0787031 457.739201,15.2516705 C461.343683,14.5242409 468.225751,14.1605261 478.385402,14.1605261 Z M158.266042,0.356280171 C159.85752,0.863789211 160.653259,2.19600044 160.653259,4.35291386 L160.640355,50.561612 C160.640355,56.1526699 157.040173,60.4284336 149.83981,63.388903 C144.147053,65.6658072 138.048679,66.800344 131.903423,66.7257749 L113.967035,66.7257749 C95.5833123,66.7257749 86.2064956,61.7733326 85.8365845,51.8684478 C85.6473277,46.3535162 85.7032445,39.3710377 86.0043349,30.9210121 C86.374246,20.0264847 95.6392291,14.579221 113.799284,14.579221 L148.897828,14.579221 L148.897828,4.35291386 C148.897828,1.46857082 150.347363,0.0263992942 153.246434,0.0263992942 C154.926991,-0.0560151297 156.611588,0.0546939962 158.266042,0.356280171 Z M66.1194617,39.4217886 L24.4012299,39.4217886 C21.8392846,39.4306296 19.2967685,39.8594335 16.8782701,40.6905612 C13.4372364,41.7901641 11.7167196,43.274628 11.7167196,45.143953 L11.7167196,51.7923214 C11.7167196,53.6954803 13.4802493,55.1799443 17.0073088,56.2457133 C19.5060649,57.0588139 22.1177455,57.4868027 24.7496346,57.5144859 L53.9123948,57.5144859 C59.1513685,57.5144859 62.5924022,56.8378071 64.2354957,55.4844497 C65.637717,54.3425543 66.3388276,52.0799099 66.3388276,48.6965163 C66.3388276,47.9690866 66.3001159,46.5861245 66.2226927,44.5476299 C66.1452694,42.5091352 66.1108591,40.8005215 66.1194617,39.4217886 Z M148.884933,24.2853314 L113.554111,24.2853314 C103.041753,24.2853314 97.7855739,26.5691221 97.7855739,31.1367035 L97.7855739,49.7876607 C97.7855739,53.1710543 99.7555656,55.3660309 103.695549,56.3725905 C107.044446,56.933606 110.44312,57.1546883 113.837996,57.0323523 L130.767881,57.0323523 C142.854512,57.0408107 148.893526,54.8120002 148.884933,50.3459207 L148.884933,24.2853314 Z M185.660971,25.1100336 C181.652167,26.3872647 179.647765,28.3242575 179.647765,30.9210121 L179.647765,50.4093593 C179.647765,52.9469045 181.708083,54.7781663 185.828721,55.9031446 C188.917057,56.7133769 192.1041,57.1018822 195.300166,57.0577277 L214.397903,57.0577277 C217.364223,57.0946418 220.317561,56.6663428 223.146731,55.7889551 C226.931868,54.5370995 228.824437,52.7439009 228.824437,50.4093593 L228.824437,30.0963099 C228.824437,25.9262773 223.998387,23.841261 214.346288,23.841261 L195.235647,23.841261 C191.997224,23.7861092 188.769003,24.2138916 185.660971,25.1100336 Z" id="adorsys-logo" fill="#054F72" fill-rule="nonzero"></path>
    </g>
</svg>